<svg xmlns="http://www.w3.org/2000/svg" width="920" height="520" viewBox="0 0 920 520">
<rect width="100%" height="100%" fill="#ffffff"/>
<text x="460.00" y="36.00" font-family="Arial, sans-serif" font-size="22" font-weight="700" text-anchor="middle" fill="#111827">Mean delta P0 by condition</text>
<line x1="70.00" y1="70.00" x2="850.00" y2="70.00" stroke="#111827" stroke-width="1.5"/>
<rect x="120.00" y="70.00" width="42.00" height="361.68" fill="#0f766e" rx="2"/>
<text x="141.00" y="453.68" font-family="Arial, sans-serif" font-size="13" font-weight="400" text-anchor="middle" fill="#111827">-0.0032</text>
<rect x="176.00" y="70.00" width="42.00" height="353.65" fill="#2563eb" rx="2"/>
<text x="197.00" y="445.65" font-family="Arial, sans-serif" font-size="13" font-weight="400" text-anchor="middle" fill="#111827">-0.0031</text>
<rect x="232.00" y="70.00" width="42.00" height="107.89" fill="#b45309" rx="2"/>
<text x="253.00" y="199.89" font-family="Arial, sans-serif" font-size="13" font-weight="400" text-anchor="middle" fill="#111827">-0.0010</text>
<text x="190.00" y="492.00" font-family="Arial, sans-serif" font-size="16" font-weight="600" text-anchor="middle" fill="#111827">scaled mini</text>
<rect x="310.00" y="70.00" width="42.00" height="259.33" fill="#0f766e" rx="2"/>
<text x="331.00" y="351.33" font-family="Arial, sans-serif" font-size="13" font-weight="400" text-anchor="middle" fill="#111827">-0.0023</text>
<rect x="366.00" y="70.00" width="42.00" height="44.22" fill="#2563eb" rx="2"/>
<text x="387.00" y="136.22" font-family="Arial, sans-serif" font-size="13" font-weight="400" text-anchor="middle" fill="#111827">-0.0004</text>
<rect x="422.00" y="70.00" width="42.00" height="0.45" fill="#b45309" rx="2"/>
<text x="443.00" y="92.45" font-family="Arial, sans-serif" font-size="13" font-weight="400" text-anchor="middle" fill="#111827">-0.0000</text>
<text x="380.00" y="492.00" font-family="Arial, sans-serif" font-size="16" font-weight="600" text-anchor="middle" fill="#111827">scaled nano</text>
<rect x="500.00" y="70.00" width="42.00" height="276.18" fill="#0f766e" rx="2"/>
<text x="521.00" y="368.18" font-family="Arial, sans-serif" font-size="13" font-weight="400" text-anchor="middle" fill="#111827">-0.0024</text>
<rect x="556.00" y="70.00" width="42.00" height="380.00" fill="#2563eb" rx="2"/>
<text x="577.00" y="472.00" font-family="Arial, sans-serif" font-size="13" font-weight="400" text-anchor="middle" fill="#111827">-0.0034</text>
<rect x="612.00" y="70.00" width="42.00" height="359.53" fill="#b45309" rx="2"/>
<text x="633.00" y="451.53" font-family="Arial, sans-serif" font-size="13" font-weight="400" text-anchor="middle" fill="#111827">-0.0032</text>
<text x="570.00" y="492.00" font-family="Arial, sans-serif" font-size="16" font-weight="600" text-anchor="middle" fill="#111827">scaled together qwen</text>
<rect x="690.00" y="70.00" width="42.00" height="299.02" fill="#0f766e" rx="2"/>
<text x="711.00" y="391.02" font-family="Arial, sans-serif" font-size="13" font-weight="400" text-anchor="middle" fill="#111827">-0.0026</text>
<rect x="746.00" y="70.00" width="42.00" height="259.33" fill="#2563eb" rx="2"/>
<text x="767.00" y="351.33" font-family="Arial, sans-serif" font-size="13" font-weight="400" text-anchor="middle" fill="#111827">-0.0023</text>
<rect x="802.00" y="70.00" width="42.00" height="155.96" fill="#b45309" rx="2"/>
<text x="823.00" y="247.96" font-family="Arial, sans-serif" font-size="13" font-weight="400" text-anchor="middle" fill="#111827">-0.0014</text>
<text x="760.00" y="492.00" font-family="Arial, sans-serif" font-size="16" font-weight="600" text-anchor="middle" fill="#111827">combined</text>
<rect x="690.00" y="73.00" width="16.00" height="16.00" fill="#0f766e" rx="2"/>
<text x="714.00" y="86.00" font-family="Arial, sans-serif" font-size="14" font-weight="400" text-anchor="start" fill="#111827">early</text>
<rect x="690.00" y="99.00" width="16.00" height="16.00" fill="#2563eb" rx="2"/>
<text x="714.00" y="112.00" font-family="Arial, sans-serif" font-size="14" font-weight="400" text-anchor="start" fill="#111827">mid</text>
<rect x="690.00" y="125.00" width="16.00" height="16.00" fill="#b45309" rx="2"/>
<text x="714.00" y="138.00" font-family="Arial, sans-serif" font-size="14" font-weight="400" text-anchor="start" fill="#111827">late</text>
<text x="72.00" y="72.00" font-family="Arial, sans-serif" font-size="13" font-weight="400" text-anchor="start" fill="#111827">0</text>
<text x="72.00" y="458.00" font-family="Arial, sans-serif" font-size="13" font-weight="400" text-anchor="start" fill="#111827">-0.0034</text>
</svg>
